<svg width="41" height="41" viewBox="0 0 41 41" fill="none" xmlns="http://www.w3.org/2000/svg">
<path d="M40.0518 20.0583C40.0518 30.1626 32.5641 38.5159 22.837 39.8715C21.9275 39.9977 20.997 40.0635 20.0525 40.0635C18.9622 40.0635 17.8915 39.9766 16.8489 39.8084C7.325 38.2748 0.0517578 30.0154 0.0517578 20.0583C0.0517578 9.00931 9.00667 0.0517578 20.0511 0.0517578C31.0954 0.0517578 40.0518 9.00931 40.0518 20.0583Z" fill="#1877F2"/>
<path d="M22.8371 16.1151V20.4733H28.2268L27.3734 26.3441H22.8371V39.8701C21.9276 39.9963 20.997 40.0622 20.0525 40.0622C18.9622 40.0622 17.8916 39.9753 16.8489 39.8071V26.3441H11.8782V20.4733H16.8489V15.1409C16.8489 11.8326 19.5298 9.14954 22.8385 9.14954V9.15234C22.8483 9.15234 22.8567 9.14954 22.8665 9.14954H28.2282V14.2269H24.7248C23.6835 14.2269 22.8385 15.0722 22.8385 16.1137L22.8371 16.1151Z" fill="white"/>
</svg>
