<svg width="41" height="41" viewBox="0 0 41 41" fill="none" xmlns="http://www.w3.org/2000/svg">
<path d="M20.0972 0.0517578H20.0061C8.98555 0.0517578 0.0516357 8.9883 0.0516357 20.0121V20.1032C0.0516357 31.127 8.98555 40.0635 20.0061 40.0635H20.0972C31.1177 40.0635 40.0516 31.127 40.0516 20.1032V20.0121C40.0516 8.9883 31.1177 0.0517578 20.0972 0.0517578Z" fill="url(#paint0_linear_58_777)"/>
<path d="M26.2408 8.19202H13.8636C10.4442 8.19202 7.66248 10.9746 7.66248 14.395V25.7216C7.66248 29.142 10.4442 31.9246 13.8636 31.9246H26.2408C29.6602 31.9246 32.4419 29.142 32.4419 25.7216V14.395C32.4419 10.9746 29.6602 8.19202 26.2408 8.19202ZM9.85005 14.395C9.85005 12.1816 11.6508 10.3802 13.8636 10.3802H26.2408C28.4536 10.3802 30.2544 12.1816 30.2544 14.395V25.7216C30.2544 27.9351 28.4536 29.7364 26.2408 29.7364H13.8636C11.6508 29.7364 9.85005 27.9351 9.85005 25.7216V14.395Z" fill="white"/>
<path d="M20.0522 25.8268C23.232 25.8268 25.8203 23.239 25.8203 20.0569C25.8203 16.8748 23.2334 14.2871 20.0522 14.2871C16.871 14.2871 14.2841 16.8748 14.2841 20.0569C14.2841 23.239 16.871 25.8268 20.0522 25.8268ZM20.0522 16.4767C22.0268 16.4767 23.6328 18.0832 23.6328 20.0583C23.6328 22.0335 22.0268 23.64 20.0522 23.64C18.0776 23.64 16.4716 22.0335 16.4716 20.0583C16.4716 18.0832 18.0776 16.4767 20.0522 16.4767Z" fill="white"/>
<path d="M26.3542 15.2193C27.2104 15.2193 27.9083 14.5226 27.9083 13.6647C27.9083 12.8068 27.2118 12.1101 26.3542 12.1101C25.4965 12.1101 24.8 12.8068 24.8 13.6647C24.8 14.5226 25.4965 15.2193 26.3542 15.2193Z" fill="white"/>
<defs>
<linearGradient id="paint0_linear_58_777" x1="5.89545" y1="34.218" x2="34.2162" y2="5.90704" gradientUnits="userSpaceOnUse">
<stop stop-color="#FAAD4F"/>
<stop offset="0.35" stop-color="#DD2A7B"/>
<stop offset="0.62" stop-color="#9537B0"/>
<stop offset="1" stop-color="#515BD4"/>
</linearGradient>
</defs>
</svg>
