<svg width="24" height="24" viewBox="0 0 24 24" fill="none" xmlns="http://www.w3.org/2000/svg">
<path d="M21.6488 19.8751C20.221 17.4067 18.0207 15.6367 15.4529 14.7976C16.723 14.0415 17.7099 12.8893 18.2618 11.518C18.8138 10.1468 18.9004 8.63224 18.5083 7.20701C18.1161 5.78178 17.267 4.52467 16.0913 3.62873C14.9156 2.73279 13.4783 2.24756 12.0001 2.24756C10.5219 2.24756 9.08457 2.73279 7.90884 3.62873C6.73312 4.52467 5.884 5.78178 5.49189 7.20701C5.09978 8.63224 5.18635 10.1468 5.73831 11.518C6.29027 12.8893 7.2771 14.0415 8.54726 14.7976C5.97945 15.6357 3.77913 17.4057 2.35132 19.8751C2.29896 19.9605 2.26423 20.0555 2.24918 20.1545C2.23413 20.2535 2.23906 20.3545 2.26369 20.4516C2.28831 20.5487 2.33213 20.6399 2.39256 20.7197C2.45299 20.7996 2.52881 20.8666 2.61553 20.9167C2.70226 20.9667 2.79814 20.999 2.89752 21.0114C2.99689 21.0238 3.09776 21.0163 3.19415 20.9891C3.29055 20.9619 3.38053 20.9157 3.45878 20.8532C3.53703 20.7907 3.60197 20.7131 3.64976 20.6251C5.41601 17.5726 8.53788 15.7501 12.0001 15.7501C15.4623 15.7501 18.5841 17.5726 20.3504 20.6251C20.3982 20.7131 20.4631 20.7907 20.5414 20.8532C20.6196 20.9157 20.7096 20.9619 20.806 20.9891C20.9024 21.0163 21.0032 21.0238 21.1026 21.0114C21.202 20.999 21.2979 20.9667 21.3846 20.9167C21.4713 20.8666 21.5471 20.7996 21.6076 20.7197C21.668 20.6399 21.7118 20.5487 21.7365 20.4516C21.7611 20.3545 21.766 20.2535 21.751 20.1545C21.7359 20.0555 21.7012 19.9605 21.6488 19.8751ZM6.75007 9.00011C6.75007 7.96176 7.05798 6.94672 7.63486 6.08337C8.21173 5.22001 9.03167 4.5471 9.99098 4.14974C10.9503 3.75238 12.0059 3.64841 13.0243 3.85099C14.0427 4.05356 14.9782 4.55357 15.7124 5.2878C16.4466 6.02202 16.9466 6.95748 17.1492 7.97589C17.3518 8.99429 17.2478 10.0499 16.8504 11.0092C16.4531 11.9685 15.7802 12.7884 14.9168 13.3653C14.0535 13.9422 13.0384 14.2501 12.0001 14.2501C10.6081 14.2486 9.27365 13.695 8.2894 12.7108C7.30516 11.7265 6.75156 10.392 6.75007 9.00011Z" fill="#4568DC"/>
</svg>
